<svg xmlns="http://www.w3.org/2000/svg" viewBox="0 0 24 24" fill="none" stroke="url(#g)" stroke-width="2" stroke-linecap="round" stroke-linejoin="round">
  <defs>
    <linearGradient id="g" x1="0%" y1="0%" x2="100%" y2="100%">
      <stop offset="0%" stop-color="#F43397" />
      <stop offset="100%" stop-color="#6C2BD9" />
    </linearGradient>
  </defs>
  <path d="M12 5a3 3 0 1 0-5.997.125 4 4 0 0 0-2.526 5.77 4 4 0 0 0 .556 6.588A4 4 0 1 0 12 18Z"/>
  <path d="M12 5a3 3 0 1 1 5.997.125 4 4 0 0 1 2.526 5.77 4 4 0 0 1-.556 6.588A4 4 0 1 1 12 18Z"/>
  <path d="M15 13a4.5 4.5 0 0 1-3-4 4.5 4.5 0 0 1-3 4"/>
  <path d="M17.599 6.5a3 3 0 0 0 .399-1.375"/>
  <path d="M6.002 6.5A3 3 0 0 1 5.603 5.125"/>
  <path d="M11.8 12a1 1 0 0 0-1.15.118L8.6 14.5"/>
  <path d="M12.2 12a1 1 0 0 1 1.15.118l2.05 2.382"/>
</svg>
